<?xml version="1.0" standalone="no"?>
<!DOCTYPE svg PUBLIC "-//W3C//DTD SVG 20010904//EN"
 "http://www.w3.org/TR/2001/REC-SVG-20010904/DTD/svg10.dtd">
<svg version="1.0" xmlns="http://www.w3.org/2000/svg"
 width="700.000000pt" height="700.000000pt" viewBox="0 0 700.000000 700.000000"
 preserveAspectRatio="xMidYMid meet">
<metadata>
Created by potrace 1.11, written by Peter Selinger 2001-2013
</metadata>
<g transform="translate(0.000000,700.000000) scale(0.100000,-0.100000)"
fill="#000000" stroke="none">
<path d="M1826 5798 c-104 -271 -213 -554 -241 -628 -29 -74 -90 -232 -135
-350 -46 -118 -110 -285 -143 -370 -33 -85 -65 -171 -72 -190 -26 -70 -286
-746 -294 -765 -5 -11 -48 -123 -96 -250 -48 -126 -91 -239 -96 -250 -8 -18
-140 -363 -500 -1305 -77 -201 -144 -374 -149 -385 -5 -11 -19 -47 -31 -80
-11 -33 -27 -74 -35 -92 -8 -17 -14 -36 -14 -41 0 -7 124 -10 363 -10 l363 0
64 176 c34 98 69 191 75 207 7 17 107 291 223 610 l209 580 1090 3 1091 2 27
-72 c112 -296 479 -1251 546 -1418 23 -58 72 -184 109 -280 46 -119 72 -174
82 -172 17 4 277 100 303 112 17 8 133 52 235 90 14 5 39 15 55 21 17 7 50 20
75 29 95 35 717 273 760 290 25 10 117 46 205 79 173 65 362 137 805 306 l286
109 -97 254 c-54 140 -100 256 -102 258 -2 2 -181 -64 -398 -147 -217 -82
-477 -182 -579 -221 -102 -38 -225 -86 -275 -105 -49 -19 -115 -44 -145 -55
-30 -11 -62 -22 -70 -25 -8 -4 -145 -56 -305 -118 l-290 -111 -18 46 c-10 25
-22 54 -27 65 -9 20 -80 193 -184 449 -153 376 -399 977 -416 1016 -11 25
-112 272 -225 550 -113 278 -210 514 -214 525 -5 11 -16 36 -24 55 -8 19 -44
107 -80 195 -36 88 -97 239 -136 335 -40 96 -90 220 -113 275 -22 55 -46 114
-53 130 -7 17 -68 165 -135 330 -67 165 -128 314 -135 330 -16 36 -161 391
-186 455 l-17 45 -374 3 -373 2 -189 -492z m625 -318 c22 -69 44 -134 48 -145
16 -37 73 -210 79 -235 3 -14 110 -304 239 -645 389 -1028 463 -1225 463
-1230 0 -3 -396 -5 -881 -5 -701 0 -880 3 -877 13 29 79 279 744 304 809 19
49 34 92 34 98 0 6 4 18 10 28 18 30 246 652 299 812 43 132 104 339 116 390
1 8 8 35 15 60 7 25 13 52 15 60 2 8 11 47 20 85 9 39 18 86 21 105 10 59 17
57 37 -10 10 -36 36 -121 58 -190z"/>
</g>
</svg>
